<svg xmlns="http://www.w3.org/2000/svg" viewBox="0 0 431.79 335.31"><defs><style>.cls-1{fill:#eb573f;}.cls-2{fill:#ea4e35;}.cls-3{fill:#f18877;}</style></defs><g id="Layer_2" data-name="Layer 2"><g id="Layer_1-2" data-name="Layer 1"><path class="cls-1" d="M200.8.6a54.3,54.3,0,0,0,6.86.62c9.48.31,18.56,3,27.76,5.27,15.37,3.86,29.38,10.67,42.81,18.63,10.15,6,19.23,13.61,27.85,21.82a172.9,172.9,0,0,1,21.53,24.88A174.45,174.45,0,0,1,340.19,93a139,139,0,0,1,11.05,28.58c5.72,21.83,8.88,44,5.11,66.59-1,5.91-1,5.91,5.2,5.91,11.16,0,22.32,0,33.48,0,7.19,0,12.2,3.67,14.28,10.18,1.86,5.81-.47,12.19-5.92,16.17-2.43,1.78-5.21,1.88-8.09,1.88-46.47,0-92.94.16-139.41-.14-13.14-.09-17.38,12-13.2,21.45,1.72,3.92,6,6.51,10.86,6.79,2.82.16,5.67.06,8.46.46a13.26,13.26,0,0,1,11.57,14.18c-.39,7-6.34,13.07-13.31,13.28-5.16.16-10.32,0-15.49.07-14.61.3-17,11.41-13.37,21,2.11,5.56,7.7,6.9,13.34,6.9q30.72,0,61.46,0c9.16,0,18.32.1,27.48,0,12.26-.17,18.42,11.17,13.32,21.23-2.87,5.66-7.93,7.65-13.77,7.66q-52,.13-103.94.05-67.71,0-135.42,0c-13.5,0-18.87-10.25-15-20.92,1.69-4.68,7-7.94,13.54-8,18.32,0,36.64,0,55,0,13,0,18.73-9,13.7-20.94-2.77-6.56-8.49-6.88-14.06-6.91-27.32-.16-54.64-.11-81.95,0-4.11,0-7.78-.68-11.24-3.11-3.94-2.76-5.58-7.6-4.25-14.28,1.12-5.62,4.21-9.11,8.95-9.78,3.12-.44,6.33-.32,9.42-.89,7.84-1.45,12.46-5.6,12.2-14.59-.24-8-5.68-13.48-13.33-13.49q-26.23,0-52.47,0C7.51,222.33.52,215.86,0,209.11c-.44-6,6.74-14.14,12.92-14.93,3.87-.49,9.36,1.89,11.2-1.14,1.62-2.66-.72-7.62-1-11.58-1.22-15.36.05-30.5,2.72-45.7A158,158,0,0,1,44.6,84.47a162.32,162.32,0,0,1,43-49.14,169,169,0,0,1,22.6-15,172.62,172.62,0,0,1,42-15.9,109.55,109.55,0,0,1,19.27-3.16c2.62-.14,5.23-.36,7.84-.74A99.32,99.32,0,0,1,200.8.6Z"/><path class="cls-2" d="M429.79,269.28c-2.51,7.17-8,9.31-15.06,9.19-8.63-.15-17.28-.23-25.91,0-13.52.37-18.21-12.43-12.93-21.93,1.61-2.89,3.88-4.89,7.32-5.28,11.92-1.35,23.88-1,35.79-.3,7.51.46,12.8,7.53,12.66,15.29C430.82,267.13,430.85,268.53,429.79,269.28Z"/><path class="cls-2" d="M321.84,278.43c-4.66,0-9.32.05-14,0-6.51-.09-11.63-3.29-13-8-2.21-7.77-.26-14.58,5.07-18.37,1.54-1.09,3.21-.81,4.76-.93a207.11,207.11,0,0,1,35.83.09c4.92.5,9.3,5.38,10.21,10.57s-1.63,11.44-5.58,13.91a16.46,16.46,0,0,1-9.86,2.8C330.83,278.26,326.33,278.43,321.84,278.43Z"/><path class="cls-3" d="M429.79,269.28c-.1-1.46,0-2.78,1.87-3C432.07,267.89,431.59,269,429.79,269.28Z"/></g></g></svg>