<svg xmlns="http://www.w3.org/2000/svg" viewBox="0 0 34.51 34.92"><g id="Layer_2" data-name="Layer 2"><g id="Layer_1-2" data-name="Layer 1"><path d="M23.15,0a1.7,1.7,0,0,1,1.24,1.39,1.55,1.55,0,0,1-.1.77C24,3,23.74,3.79,23.46,4.6a1.54,1.54,0,1,1-2.92-.94c.26-.87.57-1.73.88-2.6A1.81,1.81,0,0,1,22.6,0Z"/><path d="M17.28,7.43a10,10,0,0,0,0,20.05,10,10,0,0,0,0-20Zm0,17a7,7,0,1,1,6.91-6.95A7,7,0,0,1,17.26,24.41Z"/><path d="M30.35,20.73a1.71,1.71,0,0,1,.57.12l2.49.86a1.54,1.54,0,0,1,1.1,1.6,1.61,1.61,0,0,1-1.38,1.42,1.21,1.21,0,0,1-.6-.06c-.91-.3-1.82-.6-2.71-.94a1.59,1.59,0,0,1-1-1.7A1.62,1.62,0,0,1,30.35,20.73Z"/><path d="M32.3,8.7a1.46,1.46,0,0,1,1.48,1.06,1.55,1.55,0,0,1-.71,1.81q-1.32.72-2.7,1.32a1.5,1.5,0,0,1-1.92-.73,1.59,1.59,0,0,1,.54-2,28.74,28.74,0,0,1,2.78-1.38A1.84,1.84,0,0,1,32.3,8.7Z"/><path d="M4.14,14.26a1.47,1.47,0,0,1-.57-.13l-2.46-.84A1.63,1.63,0,0,1,0,11.64a1.6,1.6,0,0,1,1.38-1.37,1.33,1.33,0,0,1,.63.06c.89.3,1.77.6,2.65.92a1.58,1.58,0,0,1,1,1.71A1.6,1.6,0,0,1,4.14,14.26Z"/><path d="M2.22,26.21A1.45,1.45,0,0,1,.73,25.15a1.56,1.56,0,0,1,.67-1.78A29.24,29.24,0,0,1,4.21,22a1.52,1.52,0,0,1,1.86.78,1.59,1.59,0,0,1-.53,2,26.72,26.72,0,0,1-2.84,1.4A1.79,1.79,0,0,1,2.22,26.21Z"/><path d="M14.06,30.82c0,.09,0,.29-.09.47-.28.85-.56,1.69-.86,2.53a1.64,1.64,0,0,1-1.66,1.09,1.63,1.63,0,0,1-1.34-1.42,1.21,1.21,0,0,1,.06-.57c.3-.91.6-1.83.93-2.73a1.52,1.52,0,0,1,3,.63Z"/><path d="M25.87,32.58a1.49,1.49,0,0,1-1,1.53A1.54,1.54,0,0,1,23,33.42c-.47-.87-.91-1.77-1.3-2.68a1.6,1.6,0,0,1,.75-2,1.58,1.58,0,0,1,2,.71c.44.84.84,1.7,1.25,2.56A1.37,1.37,0,0,1,25.87,32.58Z"/><path d="M8.64,2.41a1.61,1.61,0,0,1,1-1.6,1.55,1.55,0,0,1,1.81.7c.46.87.9,1.75,1.29,2.65a1.61,1.61,0,0,1-.74,2,1.57,1.57,0,0,1-2-.71c-.44-.84-.84-1.7-1.24-2.56A1.11,1.11,0,0,1,8.64,2.41Z"/></g></g></svg>