<svg xmlns="http://www.w3.org/2000/svg" viewBox="0 0 34.92 34.92"><g id="Layer_2" data-name="Layer 2"><g id="Layer_1-2" data-name="Layer 1"><path d="M27.47,28.21a14.47,14.47,0,0,1-4.36-13.72A14.43,14.43,0,0,1,28,6.21,3.19,3.19,0,0,0,29.07,2.8,3.24,3.24,0,0,0,26.47.31c-.21,0-.42-.07-.63-.11A11.16,11.16,0,0,1,24.55,0h-.2a.14.14,0,0,1-.11,0h-.3c-.07,0-.14,0-.2,0H22.58c-.06.05-.14,0-.2,0h-.15a.18.18,0,0,1-.13,0h-.34c0,.09-.11.06-.17.07A16.27,16.27,0,0,0,19.3.43,17.45,17.45,0,0,0,5.89,19.77a16.85,16.85,0,0,0,6.9,11.69,17.06,17.06,0,0,0,13.59,3.16,3.2,3.2,0,0,0,2.67-2.42,3.28,3.28,0,0,0-1-3.47C27.86,28.55,27.65,28.39,27.47,28.21Zm-1,3.24a.74.74,0,0,1-.69.52,16.64,16.64,0,0,1-2.54.22A14.73,14.73,0,0,1,20.06,3.06a15.34,15.34,0,0,1,5.69-.12.74.74,0,0,1,.69.52.75.75,0,0,1-.33.8,16.86,16.86,0,0,0-5.59,9.32A17.13,17.13,0,0,0,24.27,28.8a14.13,14.13,0,0,0,1.85,1.86A.71.71,0,0,1,26.43,31.45Z"/><path d="M0,12.07c.11-.06.1-.19.15-.29A1.73,1.73,0,0,1,2,10.8a1.71,1.71,0,0,1,0,3.36,1.73,1.73,0,0,1-1.87-1c0-.1,0-.23-.15-.29Z"/><path d="M22.58,0a.19.19,0,0,1-.21.06s0,0,0,0,0,0,0,0Z"/><path d="M23.94.06c-.07,0-.16,0-.21-.06h.21s0,0,0,0A0,0,0,0,1,23.94.06Z"/><path d="M22.23.06c-.05,0-.11,0-.13-.06h.13a0,0,0,0,1,0,0Z"/><path d="M22.23.06V0h.14V.06Z"/><path d="M23.94.06V0h.14s0,0,0,0l0,0Z"/><path d="M24.08.06V0h.13s0,0,0,0a0,0,0,0,1,0,0Z"/><path d="M24.22.06a.13.13,0,0,1,0-.06h.14C24.33.09,24.27.07,24.22.06Z"/><path d="M6.4,5.32a1.71,1.71,0,1,1,1.72-1.7A1.7,1.7,0,0,1,6.4,5.32Z"/><path d="M29.27,12.21a1.71,1.71,0,1,1,0,3.41,1.71,1.71,0,0,1,0-3.41Z"/><path d="M33.17,24.82a1.7,1.7,0,1,1,1.75-1.66A1.71,1.71,0,0,1,33.17,24.82Z"/><path d="M6.2,34.92a1.71,1.71,0,1,1,0-3.41,1.71,1.71,0,0,1,0,3.41Z"/></g></g></svg>