<svg xmlns="http://www.w3.org/2000/svg" viewBox="0 0 34.66 34.91"><g id="Layer_2" data-name="Layer 2"><g id="Layer_1-2" data-name="Layer 1"><path d="M20.31,27.52a1.36,1.36,0,1,1-2.71.05A1.63,1.63,0,0,0,16,25.91a1.37,1.37,0,1,1,.09-2.73A4.38,4.38,0,0,1,20.31,27.52Z"/><path d="M27.28,25.46a.39.39,0,0,1-.14-.43,6.17,6.17,0,0,0,0-1.87,6.26,6.26,0,0,0-5.33-5.29.61.61,0,0,1-.58-.44,7.35,7.35,0,0,0-14,.91.34.34,0,0,1-.33.3A8.05,8.05,0,0,0,.24,24.77,7.87,7.87,0,0,1,0,25.84v1.85a7.28,7.28,0,0,0,.39,1.84,9.36,9.36,0,0,0,.55,1.2A8,8,0,0,0,4.15,34a7.13,7.13,0,0,0,3,.95H24.24s.05,0,.1-.06a5.44,5.44,0,0,0,2.94-9.39Zm-1,4.72a2.68,2.68,0,0,1-2.63,2H8.18A5.41,5.41,0,0,1,2.81,27.8a5.47,5.47,0,0,1,5.13-6.52c.2,0,.41,0,.61,0A1.37,1.37,0,0,0,9.75,20a4.61,4.61,0,0,1,3.68-4.38A4.7,4.7,0,0,1,19,19.18a1.52,1.52,0,0,0,1,1.36,1.39,1.39,0,0,0,.64,0,3.49,3.49,0,0,1,3.8,2.83,3.65,3.65,0,0,1-.15,1.88A1.37,1.37,0,0,0,25,27.12,2.69,2.69,0,0,1,26.24,30.18Z"/><path d="M19.46,6.55a8.48,8.48,0,0,1,8.65,9.34c0,.21-.05.43-.08.64a1.35,1.35,0,0,1-2.67-.43,5.72,5.72,0,0,0-3.55-6.44,5.5,5.5,0,0,0-5.22.61,1.69,1.69,0,0,1-1.15.41,1.37,1.37,0,0,1-1.18-1,1.35,1.35,0,0,1,.55-1.47A8.05,8.05,0,0,1,19.46,6.55Z"/><path d="M15.5,4.84a1.36,1.36,0,0,1-.92,1.29,1.3,1.3,0,0,1-1.51-.47c-.42-.65-.83-1.3-1.2-2a1.33,1.33,0,0,1,.49-1.78,1.31,1.31,0,0,1,1.8.37c.41.62.79,1.27,1.17,1.91A1.24,1.24,0,0,1,15.5,4.84Z"/><path d="M8.34,6.41a1.36,1.36,0,0,1,.73.22L10.72,7.7a1.36,1.36,0,0,1,.44,1.9,1.34,1.34,0,0,1-1.9.39c-.58-.36-1.16-.73-1.73-1.12a1.32,1.32,0,0,1-.48-1.54A1.36,1.36,0,0,1,8.34,6.41Z"/><path d="M32.9,8.28a1.3,1.3,0,0,1-.68,1.08c-.6.34-1.21.68-1.83,1A1.35,1.35,0,0,1,29.12,8c.6-.35,1.2-.68,1.81-1A1.37,1.37,0,0,1,32.9,8.28Z"/><path d="M31.41,23.32a1.35,1.35,0,0,1-.73-.21l-1.62-1a1.35,1.35,0,0,1-.5-1.88,1.32,1.32,0,0,1,1.87-.47q.88.51,1.74,1a1.37,1.37,0,0,1-.76,2.49Z"/><path d="M21.19,2.35c0,.34,0,.68,0,1A1.36,1.36,0,0,1,19.84,4.7a1.34,1.34,0,0,1-1.36-1.32c0-.68,0-1.36,0-2A1.35,1.35,0,0,1,19.83,0a1.37,1.37,0,0,1,1.36,1.33C21.2,1.67,21.19,2,21.19,2.35Z"/><path d="M32.31,16.3h-1a1.37,1.37,0,0,1,0-2.73h2a1.37,1.37,0,0,1,0,2.73Z"/><path d="M24.5,5a1.28,1.28,0,0,1,.21-.72c.34-.53.67-1.07,1-1.61a1.34,1.34,0,0,1,1.88-.44A1.35,1.35,0,0,1,28,4.14c-.34.58-.69,1.14-1.07,1.69a1.29,1.29,0,0,1-1.52.51A1.35,1.35,0,0,1,24.5,5Z"/><path d="M20.31,27.52a1.36,1.36,0,1,1-2.71.05A1.63,1.63,0,0,0,16,25.91a1.37,1.37,0,1,1,.09-2.73A4.38,4.38,0,0,1,20.31,27.52Z"/><path d="M20.31,27.52a1.36,1.36,0,1,1-2.71.05A1.63,1.63,0,0,0,16,25.91a1.37,1.37,0,1,1,.09-2.73A4.38,4.38,0,0,1,20.31,27.52Z"/></g></g></svg>