<svg xmlns="http://www.w3.org/2000/svg" viewBox="0 0 34.92 34.92"><g id="Layer_2" data-name="Layer 2"><g id="Layer_1-2" data-name="Layer 1"><path d="M10.5,0c.22.07.45.13.67.21a3,3,0,0,1,1.4,4.43,9.66,9.66,0,0,0-1.48,3.59,8.51,8.51,0,0,0,.73,5.63,1.36,1.36,0,1,1-2.4,1.27A10.37,10.37,0,0,1,8.21,9.38a12,12,0,0,1,2-6.1c.09-.13.18-.27.06-.43a.29.29,0,0,0-.37-.08,10.48,10.48,0,0,0-6,5.08,12.55,12.55,0,0,0-1.17,6.52,13,13,0,0,0,1.52,5.5l.28.47a1.36,1.36,0,1,1-2.34,1.4A14.36,14.36,0,0,1,.41,17.19,17.81,17.81,0,0,1,.07,15c0-.05,0-.11-.07-.13v-.34s0-.1,0-.15v-.12s0-.1,0-.14V13.3a.86.86,0,0,0,0-.55v-.27s0-.09,0-.14,0-.09,0-.13v-.27A14.56,14.56,0,0,1,.49,9,12.67,12.67,0,0,1,3.55,3.57,15,15,0,0,1,8.86.15,4.87,4.87,0,0,1,9.62,0Z"/><path d="M0,12.75a.52.52,0,0,1,0,.55Z"/><path d="M0,12.21c.08,0,.07.08.06.13s0,0-.06,0Z"/><path d="M0,12.34H.06c0,.06,0,.12-.06.14Z"/><path d="M0,14.12a.12.12,0,0,1,.06.14s0,0-.06,0Z"/><path d="M0,14.25H.06v.13s0,0-.06,0Z"/><path d="M0,14.39H.06c0,.06,0,.12-.06.14Z"/><path d="M26.12,27.54a1.37,1.37,0,0,1-2.73.05,1.64,1.64,0,0,0-1.61-1.68,1.37,1.37,0,1,1,.09-2.73A4.39,4.39,0,0,1,26.12,27.54Z"/><path d="M33.19,25.5A.45.45,0,0,1,33,25a5.74,5.74,0,0,0-.09-2.37,6.26,6.26,0,0,0-5.38-4.8.43.43,0,0,1-.42-.3,7.28,7.28,0,0,0-6.17-4.75A7.36,7.36,0,0,0,13,18.14a.63.63,0,0,1-.61.55,8.17,8.17,0,0,0,1.51,16.22h7.64c2.63,0,5.25,0,7.88,0a5.45,5.45,0,0,0,3.74-9.42Zm-1.1,4.69a2.69,2.69,0,0,1-2.59,2H13.89a5.46,5.46,0,0,1-.25-10.91H14a1.37,1.37,0,0,0,1.5-1.44,4.7,4.7,0,0,1,9.31-.54,1.41,1.41,0,0,0,1.82,1.25,3.51,3.51,0,0,1,3.46,2.15,3.42,3.42,0,0,1,.09,2.46,1.41,1.41,0,0,0,.73,2A2.69,2.69,0,0,1,32.09,30.19Z"/><path d="M26.12,27.54a1.37,1.37,0,0,1-2.73.05,1.64,1.64,0,0,0-1.61-1.68,1.37,1.37,0,1,1,.09-2.73A4.39,4.39,0,0,1,26.12,27.54Z"/><path d="M26.12,27.54a1.37,1.37,0,0,1-2.73.05,1.64,1.64,0,0,0-1.61-1.68,1.37,1.37,0,1,1,.09-2.73A4.39,4.39,0,0,1,26.12,27.54Z"/></g></g></svg>