<svg xmlns="http://www.w3.org/2000/svg" viewBox="0 0 34.92 34.92"><g id="Layer_2" data-name="Layer 2"><g id="Layer_1-2" data-name="Layer 1"><path d="M0,19.23a2.28,2.28,0,0,0,.17-.67,6.23,6.23,0,0,1,2.05-3.34.41.41,0,0,0,.16-.43,7.27,7.27,0,0,1,6-8.54,1.28,1.28,0,0,0,1.16-.92A8.71,8.71,0,0,1,26.12,6.88c0,.17.09.26.3.29A9.61,9.61,0,0,1,27.72,26a4.53,4.53,0,0,1-1.14.19A1.37,1.37,0,0,1,25.24,25a1.33,1.33,0,0,1,1-1.49,7.51,7.51,0,0,0,2.67-1A6.9,6.9,0,0,0,26.37,9.9,8.79,8.79,0,0,0,25,9.82a1.35,1.35,0,0,1-1.42-1.34,6,6,0,0,0-11.87-1c-.17.87-.53,1.28-1.22,1.38a1.53,1.53,0,0,1-.37,0A4.6,4.6,0,0,0,5.23,15a1.41,1.41,0,0,1-.75,2,3.58,3.58,0,0,0,1.67,6.65c.4,0,.8,0,1.19,0a1.36,1.36,0,0,1,1.32,1.28A1.32,1.32,0,0,1,7.48,26.3a7.42,7.42,0,0,1-3.64-.49A6.31,6.31,0,0,1,.07,21c0-.07,0-.17-.07-.21Z"/><path d="M14.94,34.92a2.28,2.28,0,0,1-.68-.38,1.36,1.36,0,0,1,0-2l4-3.89,1.51-1.48a.43.43,0,0,0,.17-.51c-.09-.23-.27-.27-.5-.27h-5a3.13,3.13,0,0,1-3.15-3.26,2.87,2.87,0,0,1,.86-2q3-2.91,6-5.79a1.33,1.33,0,0,1,1.93,0,1.36,1.36,0,0,1-.08,1.95c-1.87,1.83-3.76,3.64-5.63,5.46l-.2.19a.41.41,0,0,0,.29.71c.52,0,1,0,1.54,0,1.18,0,2.36,0,3.54,0a3.13,3.13,0,0,1,2.25,5.4c-1.83,1.81-3.67,3.6-5.5,5.4a2.31,2.31,0,0,1-.75.45Z"/></g></g></svg>