<svg xmlns="http://www.w3.org/2000/svg" viewBox="0 0 34.91 34.92"><g id="Layer_2" data-name="Layer 2"><g id="Layer_1-2" data-name="Layer 1"><path d="M34.91,17.66a9.22,9.22,0,0,0-.25,1.25,9.6,9.6,0,0,1-7.72,7.26,1.39,1.39,0,0,1-1.69-1.09,1.34,1.34,0,0,1,1.21-1.59A6.88,6.88,0,0,0,26.66,10,8.86,8.86,0,0,0,25,9.82a1.34,1.34,0,0,1-1.45-1.38,6,6,0,0,0-11.88-.89A1.41,1.41,0,0,1,10,8.88a4.6,4.6,0,0,0-4.73,6,1.43,1.43,0,0,1-.75,2,3.57,3.57,0,0,0-1.65,3.89,3.63,3.63,0,0,0,3.33,2.75c.38,0,.75,0,1.13,0a1.36,1.36,0,1,1,0,2.72,8,8,0,0,1-3.44-.49A6.31,6.31,0,0,1,2.18,15.25a.46.46,0,0,0,.18-.52A7.33,7.33,0,0,1,8.18,6.28,5.86,5.86,0,0,1,9,6.16c.2,0,.26-.1.32-.26a8.72,8.72,0,0,1,16.77.94c0,.17.06.3.3.33a9.62,9.62,0,0,1,8.31,7.61,4.85,4.85,0,0,0,.19,1Z"/><path d="M14.93,34.92a2.23,2.23,0,0,1-.67-.38,1.36,1.36,0,0,1,0-2q2-2,4-3.89l1.51-1.48a.46.46,0,0,0,.17-.51c-.09-.23-.28-.27-.5-.27h-5a3.13,3.13,0,0,1-3.15-3.26,2.91,2.91,0,0,1,.86-2q3-2.91,6-5.79a1.36,1.36,0,1,1,1.86,2L14.3,22.77l-.19.19a.37.37,0,0,0-.1.44.4.4,0,0,0,.39.27h1.53c1.19,0,2.37,0,3.55,0a3.14,3.14,0,0,1,2.25,5.41l-5.5,5.39a2.31,2.31,0,0,1-.75.45Z"/></g></g></svg>