<svg xmlns="http://www.w3.org/2000/svg" viewBox="0 0 34.92 34.92"><g id="Layer_2" data-name="Layer 2"><g id="Layer_1-2" data-name="Layer 1"><path d="M20.46,27.46a1.37,1.37,0,1,1-2.73.08,1.64,1.64,0,0,0-1.63-1.63,1.37,1.37,0,1,1,.06-2.73A4.39,4.39,0,0,1,20.46,27.46Z"/><path d="M27.49,25.47a.45.45,0,0,1-.16-.44,6.23,6.23,0,0,0-5.48-7.18.45.45,0,0,1-.42-.35,7.42,7.42,0,0,0-14.12.84.34.34,0,0,1-.33.3A8.12,8.12,0,0,0,.24,24.77,7.87,7.87,0,0,1,0,25.84v1.85c.09,0,.06.1.07.17a8.17,8.17,0,0,0,8.22,7H23.7A5.48,5.48,0,0,0,29,31,5.24,5.24,0,0,0,27.49,25.47Zm-1.06,4.72a2.71,2.71,0,0,1-2.65,2H8.24A5.46,5.46,0,0,1,8,21.28h.41A1.36,1.36,0,0,0,9.82,20a4.62,4.62,0,0,1,3.69-4.36,4.72,4.72,0,0,1,5.59,3.6,1.53,1.53,0,0,0,1.06,1.36,1.54,1.54,0,0,0,.64,0,3.51,3.51,0,0,1,3.82,2.84,3.59,3.59,0,0,1-.14,1.84,1.37,1.37,0,0,0,.68,1.87A2.7,2.7,0,0,1,26.43,30.19Z"/><path d="M20.87,0a16.15,16.15,0,0,1,1.7.4A7.4,7.4,0,0,1,27.1,4.77a.47.47,0,0,0,.43.33,6.2,6.2,0,0,1,5.52,6.46,2.13,2.13,0,0,0,.59,1.7,5.41,5.41,0,0,1-2.17,8.52,1.36,1.36,0,1,1-1-2.52A2.71,2.71,0,0,0,31.54,15a3.23,3.23,0,0,0-.76-.62,1.35,1.35,0,0,1-.65-1.82A3.53,3.53,0,0,0,27.92,8a3.05,3.05,0,0,0-1.47-.14,1.36,1.36,0,0,1-1.63-1.17,4.77,4.77,0,0,0-4.75-3.92,4.66,4.66,0,0,0-4.59,4.42A1.37,1.37,0,0,1,14,8.53a5.45,5.45,0,0,0-5.38,3.81,1.4,1.4,0,0,1-1.3,1,1.38,1.38,0,0,1-1.3-1.87,8.1,8.1,0,0,1,6.56-5.61A.37.37,0,0,0,13,5.56,7.36,7.36,0,0,1,19.29.06c.14-.07.29,0,.42-.06Z"/><path d="M19.71,0a.52.52,0,0,1-.42.06.07.07,0,0,0,0-.06Z"/><path d="M22.37,9.62A4.37,4.37,0,0,1,26.6,14a1.37,1.37,0,0,1-2.73.07,1.63,1.63,0,0,0-1.67-1.69,1.36,1.36,0,1,1,.17-2.72Z"/><path d="M20.46,27.46a1.37,1.37,0,1,1-2.73.08,1.64,1.64,0,0,0-1.63-1.63,1.37,1.37,0,1,1,.06-2.73A4.39,4.39,0,0,1,20.46,27.46Z"/><path d="M20.46,27.46a1.37,1.37,0,1,1-2.73.08,1.64,1.64,0,0,0-1.63-1.63,1.37,1.37,0,1,1,.06-2.73A4.39,4.39,0,0,1,20.46,27.46Z"/></g></g></svg>