<svg xmlns="http://www.w3.org/2000/svg" viewBox="0 0 34.93 34.92"><g id="Layer_2" data-name="Layer 2"><g id="Layer_1-2" data-name="Layer 1"><path d="M34.87,17.4a5.42,5.42,0,0,1-3.58,4.45,1.36,1.36,0,0,1-1.06-2.48c.12-.07.26-.12.39-.19a2.6,2.6,0,0,0,1.57-2.3,2.57,2.57,0,0,0-1.31-2.48,1.41,1.41,0,0,1-.72-2,3.53,3.53,0,0,0-3-4.66,2.29,2.29,0,0,0-.64,0,1.38,1.38,0,0,1-1.67-1.17,4.75,4.75,0,0,0-4.75-3.92,4.67,4.67,0,0,0-4.59,4.41A1.37,1.37,0,0,1,14,8.53a5.47,5.47,0,0,0-5.38,3.81,1.39,1.39,0,0,1-1.29,1,1.38,1.38,0,0,1-1.3-1.87,8.09,8.09,0,0,1,6.55-5.61A.38.38,0,0,0,13,5.56,7.35,7.35,0,0,1,19.31.06c.13-.07.28,0,.41-.06h1.16c.37.07.75,0,1.11.13A7.53,7.53,0,0,1,27.15,4.6a.64.64,0,0,0,.57.44,6.35,6.35,0,0,1,5.39,5.41,5.14,5.14,0,0,1,0,1.66.69.69,0,0,0,.24.7,5.05,5.05,0,0,1,1.43,2.32c.1.32.06.65.14,1V17C34.85,17.11,34.94,17.27,34.87,17.4Z"/><path d="M34.87,17.4a.56.56,0,0,1,.06-.42v.41Z"/><path d="M20.47,27.52a1.36,1.36,0,1,1-2.72.05,1.65,1.65,0,0,0-1.6-1.66,1.37,1.37,0,1,1,.09-2.73A4.39,4.39,0,0,1,20.47,27.52Z"/><path d="M27.49,25.47a.4.4,0,0,1-.14-.44,5.54,5.54,0,0,0,0-2.07,6.24,6.24,0,0,0-5.47-5.11.44.44,0,0,1-.39-.29A7.28,7.28,0,0,0,15.3,12.8a7.36,7.36,0,0,0-7.92,5.32.63.63,0,0,1-.6.57A8.17,8.17,0,0,0,8.23,34.91h7.71c2.67,0,5.34,0,8,0a5.43,5.43,0,0,0,5.31-5.29A5.3,5.3,0,0,0,27.49,25.47Zm-1,4.72a2.72,2.72,0,0,1-2.65,2H8.25A5.46,5.46,0,0,1,8,21.28h.41A1.36,1.36,0,0,0,9.83,20a4.62,4.62,0,0,1,3.69-4.36,4.72,4.72,0,0,1,5.59,3.6,1.55,1.55,0,0,0,1.06,1.36,1.58,1.58,0,0,0,.65,0,3.51,3.51,0,0,1,3.82,2.84,3.6,3.6,0,0,1-.15,1.84,1.37,1.37,0,0,0,.68,1.87A2.69,2.69,0,0,1,26.45,30.19Z"/><path d="M22.39,9.62A4.36,4.36,0,0,1,26.61,14a1.36,1.36,0,0,1-2.72.07,1.64,1.64,0,0,0-1.68-1.69,1.36,1.36,0,1,1,.18-2.72Z"/><path d="M20.47,27.52a1.36,1.36,0,1,1-2.72.05,1.65,1.65,0,0,0-1.6-1.66,1.37,1.37,0,1,1,.09-2.73A4.39,4.39,0,0,1,20.47,27.52Z"/><path d="M20.47,27.52a1.36,1.36,0,1,1-2.72.05,1.65,1.65,0,0,0-1.6-1.66,1.37,1.37,0,1,1,.09-2.73A4.39,4.39,0,0,1,20.47,27.52Z"/></g></g></svg>