<svg xmlns="http://www.w3.org/2000/svg" viewBox="0 0 34.92 34.92"><g id="Layer_2" data-name="Layer 2"><g id="Layer_1-2" data-name="Layer 1"><path d="M0,19.23a2.28,2.28,0,0,0,.17-.67,6.23,6.23,0,0,1,2.05-3.34.41.41,0,0,0,.16-.43,7.27,7.27,0,0,1,6-8.54,1.29,1.29,0,0,0,1.16-.92A8.71,8.71,0,0,1,26.12,6.87c0,.17.08.27.29.3A9.61,9.61,0,0,1,27.72,26a10.66,10.66,0,0,1-2.7.31,1.36,1.36,0,0,1,0-2.72,6.86,6.86,0,0,0,4.59-1.52,6.61,6.61,0,0,0,2.34-7.14,6.68,6.68,0,0,0-5.58-5A7.65,7.65,0,0,0,25,9.82a1.36,1.36,0,0,1-1.41-1.35A6,6,0,0,0,11.76,7.32c0,.16-.06.33-.1.5A1.36,1.36,0,0,1,10.15,8.9,4.6,4.6,0,0,0,5,13.73,4.42,4.42,0,0,0,5.25,15a1.39,1.39,0,0,1-.69,1.87,3.58,3.58,0,0,0-1.81,3.54,3.62,3.62,0,0,0,2.8,3.07,5.8,5.8,0,0,0,1.25.09c.72,0,1.44,0,2.15,0a1.36,1.36,0,1,1,0,2.72,31.58,31.58,0,0,1-3.37-.05A6.31,6.31,0,0,1,.07,21c0-.06,0-.14-.07-.17v-.2a.49.49,0,0,0,0-.41Z"/><path d="M13.91,34.92c-.09-.12-.25-.13-.38-.2a1.68,1.68,0,0,1-.86-1.89,1.7,1.7,0,1,1,2.47,1.88,4.48,4.48,0,0,1-.55.21Z"/><path d="M0,20.19a.31.31,0,0,1,0,.41Z"/><path d="M16,16.78a1.71,1.71,0,1,1-1.71-1.71A1.72,1.72,0,0,1,16,16.78Z"/><path d="M19.79,15.07a1.71,1.71,0,1,1-1.72,1.7A1.71,1.71,0,0,1,19.79,15.07Z"/><path d="M16,22.36a1.71,1.71,0,1,1-1.73-1.69A1.71,1.71,0,0,1,16,22.36Z"/><path d="M19.78,20.67a1.7,1.7,0,1,1,0,3.4,1.7,1.7,0,0,1,0-3.4Z"/><path d="M16,27.75a1.71,1.71,0,1,1-1.72-1.7A1.71,1.71,0,0,1,16,27.75Z"/><path d="M19.79,26.05a1.71,1.71,0,1,1-1.72,1.71A1.71,1.71,0,0,1,19.79,26.05Z"/></g></g></svg>