<svg xmlns="http://www.w3.org/2000/svg" viewBox="0 0 34.91 34.92"><g id="Layer_2" data-name="Layer 2"><g id="Layer_1-2" data-name="Layer 1"><path d="M34.91,17.66c-.15.42-.15.86-.27,1.28A9.66,9.66,0,0,1,25,26.32a1.36,1.36,0,0,1,0-2.72,6.8,6.8,0,0,0,5-1.86,6.6,6.6,0,0,0,1.88-7,6.65,6.65,0,0,0-5.48-4.79A7.27,7.27,0,0,0,25,9.82a1.36,1.36,0,0,1-1.4-1.32,6,6,0,0,0-11.86-1c0,.11,0,.22-.07.33A1.35,1.35,0,0,1,10.13,8.9a4.63,4.63,0,0,0-4.88,6.17,1.37,1.37,0,0,1-.68,1.82,3.56,3.56,0,0,0,.91,6.6,3.8,3.8,0,0,0,.95.11c.84,0,1.68,0,2.52,0A1.35,1.35,0,0,1,10.35,25,1.34,1.34,0,0,1,9,26.32a34.26,34.26,0,0,1-3.51-.06,6.34,6.34,0,0,1-5.4-5.4A6.21,6.21,0,0,1,2.23,15.2a.39.39,0,0,0,.14-.41,7.27,7.27,0,0,1,6-8.54,1.29,1.29,0,0,0,1.16-.92,8.53,8.53,0,0,1,7-5.27c.05,0,.12,0,.14-.06h1.7a7.18,7.18,0,0,1,2.54.58,8.69,8.69,0,0,1,5.17,5.94.71.71,0,0,0,.69.62,9.38,9.38,0,0,1,5.42,2.78,9.54,9.54,0,0,1,2.55,4.73c.08.36.07.74.14,1.1Z"/><path d="M14.31,15.07a1.71,1.71,0,1,1,0,3.41,1.71,1.71,0,0,1,0-3.41Z"/><path d="M19.76,18.48a1.71,1.71,0,1,1,1.71-1.7A1.72,1.72,0,0,1,19.76,18.48Z"/><path d="M14.31,24.07A1.7,1.7,0,1,1,16,22.36,1.69,1.69,0,0,1,14.31,24.07Z"/><path d="M21.47,22.38a1.71,1.71,0,1,1-1.7-1.71A1.7,1.7,0,0,1,21.47,22.38Z"/><path d="M14.3,26.05a1.71,1.71,0,1,1,0,3.41,1.71,1.71,0,0,1,0-3.41Z"/><path d="M19.76,26.05a1.71,1.71,0,1,1-1.7,1.72A1.71,1.71,0,0,1,19.76,26.05Z"/><path d="M14.33,31.51a1.71,1.71,0,1,1-1.72,1.7A1.71,1.71,0,0,1,14.33,31.51Z"/></g></g></svg>