<svg xmlns="http://www.w3.org/2000/svg" viewBox="0 0 34.92 34.92"><g id="Layer_2" data-name="Layer 2"><g id="Layer_1-2" data-name="Layer 1"><path d="M0,22.17a8.37,8.37,0,0,0,.24-1.08A8.1,8.1,0,0,1,7,15a.34.34,0,0,0,.33-.3,7.35,7.35,0,0,1,8-5.53,7.28,7.28,0,0,1,6.16,4.76.4.4,0,0,0,.39.28,6.25,6.25,0,0,1,5.47,5.16,5.38,5.38,0,0,1,0,2,.47.47,0,0,0,.18.49A5.45,5.45,0,0,1,25.46,31a5,5,0,0,1-1.54.23,1.36,1.36,0,1,1-.06-2.72,2.65,2.65,0,0,0,2.66-2.84,2.61,2.61,0,0,0-1.33-2.21,1.39,1.39,0,0,1-.71-1.91,3.54,3.54,0,0,0-3-4.69,2.1,2.1,0,0,0-.61,0,1.39,1.39,0,0,1-1.69-1.18,4.76,4.76,0,0,0-4.83-3.91,4.67,4.67,0,0,0-4.5,4.4,1.37,1.37,0,0,1-1.5,1.4,5.46,5.46,0,0,0-.27,10.91,1.36,1.36,0,0,1,.74,2.55,1.54,1.54,0,0,1-.72.18A8.13,8.13,0,0,1,.13,24.51c0-.17,0-.36-.13-.5Z"/><path d="M23.05,0a1.5,1.5,0,0,1,1.1,1.69c0,.43,0,.87,0,1.3a1.36,1.36,0,1,1-2.72,0c0-.44,0-.89,0-1.33A1.46,1.46,0,0,1,22.51,0Z"/><path d="M22.64,6.41a6.32,6.32,0,0,1,6.41,6.19,1.37,1.37,0,1,1-2.73.06,3.6,3.6,0,0,0-4.56-3.41,1.85,1.85,0,0,1-.81.07,1.37,1.37,0,0,1-1.1-1.26,1.34,1.34,0,0,1,.95-1.38,5.32,5.32,0,0,1,.79-.18A5,5,0,0,1,22.64,6.41Z"/><path d="M17.28,6.07a1.31,1.31,0,0,1-1.06-.49c-.39-.49-.77-1-1.12-1.49a1.36,1.36,0,0,1,2.19-1.6q.55.7,1.08,1.44a1.29,1.29,0,0,1,.08,1.42A1.33,1.33,0,0,1,17.28,6.07Z"/><path d="M32.07,14.12l.28.05c.54.16,1.09.32,1.62.5a1.35,1.35,0,0,1-.77,2.59c-.56-.14-1.11-.31-1.66-.49a1.36,1.36,0,0,1,.53-2.65Z"/><path d="M32.14,11.12a1.42,1.42,0,0,1-1.5-1.1,1.34,1.34,0,0,1,.84-1.51c.59-.22,1.2-.41,1.81-.57a1.34,1.34,0,0,1,1.52.81,1.3,1.3,0,0,1-.49,1.64A9.47,9.47,0,0,1,32.14,11.12Z"/><path d="M28.49,6.21a1.35,1.35,0,0,1-1.15-.68,1.22,1.22,0,0,1,0-1.38,18.2,18.2,0,0,1,1.1-1.51,1.32,1.32,0,0,1,1.81-.19,1.3,1.3,0,0,1,.39,1.75,17.9,17.9,0,0,1-1.17,1.58A1.24,1.24,0,0,1,28.49,6.21Z"/><path d="M15,22.23a1.71,1.71,0,1,1-1.71-1.7A1.71,1.71,0,0,1,15,22.23Z"/><path d="M20.46,22.22a1.71,1.71,0,1,1-1.73-1.69A1.72,1.72,0,0,1,20.46,22.22Z"/><path d="M15,33.22a1.71,1.71,0,1,1-1.7-1.71A1.71,1.71,0,0,1,15,33.22Z"/><path d="M15,27.71A1.7,1.7,0,1,1,13.31,26,1.69,1.69,0,0,1,15,27.71Z"/><path d="M18.75,29.39a1.7,1.7,0,1,1,1.71-1.71A1.71,1.71,0,0,1,18.75,29.39Z"/></g></g></svg>