<svg xmlns="http://www.w3.org/2000/svg" viewBox="0 0 34.93 34.92"><g id="Layer_2" data-name="Layer 2"><g id="Layer_1-2" data-name="Layer 1"><path d="M10.5,0,11,.17a3,3,0,0,1,1.52,4.47,10.08,10.08,0,0,0-1.55,4,7.48,7.48,0,0,0,.11,2.94,1.36,1.36,0,1,1-2.62.69,10.55,10.55,0,0,1,.12-5.52,11.61,11.61,0,0,1,1.56-3.46c.09-.15.22-.29.07-.48s-.31-.08-.46,0a10.57,10.57,0,0,0-5.63,4.6,11.73,11.73,0,0,0-1.43,5.47A11.91,11.91,0,0,0,4,18.81,1.37,1.37,0,1,1,1.56,20,14.59,14.59,0,0,1,.08,15c0-.07,0-.17-.08-.2v-.27s0-.09,0-.14,0-.1,0-.14v-.2a.49.49,0,0,0,0-.41v-.41a.49.49,0,0,0,0-.41v-.2s0-.09,0-.14,0-.1,0-.14V12c.09-.67.11-1.34.25-2A12.63,12.63,0,0,1,3.07,4.1,12.79,12.79,0,0,1,6.94,1c.5-.26,1-.49,1.51-.72A4.72,4.72,0,0,1,9.62,0h.13a1.3,1.3,0,0,0,.62,0Z"/><path d="M10.37,0a.62.62,0,0,1-.62,0Z"/><path d="M0,12.82a.31.31,0,0,1,0,.41Z"/><path d="M0,13.64a.31.31,0,0,1,0,.41Z"/><path d="M0,12.34c.08,0,.06.08.06.14s0,0-.06,0Z"/><path d="M0,12.48H.06c0,.06,0,.11-.06.14Z"/><path d="M0,14.25a.11.11,0,0,1,.06.14s0,0-.06,0Z"/><path d="M0,14.39H.06c0,.06,0,.12-.06.14Z"/><path d="M5.66,23.26a8.27,8.27,0,0,1,7-8.3c.19,0,.28-.08.33-.29a7.42,7.42,0,0,1,14.12-.86.46.46,0,0,0,.42.36A6.22,6.22,0,0,1,33,21.28a.64.64,0,0,0,.22.58,5.44,5.44,0,0,1-2.35,9.2,4.72,4.72,0,0,1-1.35.17,1.36,1.36,0,0,1,0-2.72,2.67,2.67,0,0,0,2.63-2,2.74,2.74,0,0,0-1.36-3.09,1.37,1.37,0,0,1-.62-1.81A3.52,3.52,0,0,0,27.63,17a2.63,2.63,0,0,0-1.15-.06,1.36,1.36,0,0,1-1.66-1.17A4.76,4.76,0,0,0,20.1,11.8a4.67,4.67,0,0,0-4.62,4.43A1.37,1.37,0,0,1,14,17.6a5.45,5.45,0,0,0-.27,10.9,1.37,1.37,0,1,1,0,2.73,8.11,8.11,0,0,1-7.76-6.05A8.88,8.88,0,0,1,5.66,23.26Z"/><path d="M19,31.51a1.71,1.71,0,1,1-1.72,1.7A1.7,1.7,0,0,1,19,31.51Z"/><path d="M19,23.94a1.71,1.71,0,1,1,1.7-1.72A1.72,1.72,0,0,1,19,23.94Z"/><path d="M19,29.39a1.71,1.71,0,1,1,1.7-1.72A1.7,1.7,0,0,1,19,29.39Z"/><path d="M24.43,23.94a1.71,1.71,0,1,1,0-3.41,1.71,1.71,0,0,1,0,3.41Z"/><path d="M26.12,27.69a1.71,1.71,0,0,1-3.41,0,1.71,1.71,0,1,1,3.41,0Z"/></g></g></svg>