<svg xmlns="http://www.w3.org/2000/svg" viewBox="0 0 34.93 34.91"><g id="Layer_2" data-name="Layer 2"><g id="Layer_1-2" data-name="Layer 1"><path d="M23.7,15.35a4.31,4.31,0,0,0-4.34-3.62h-5c-.26,0-.29-.07-.25-.31.45-2.65.89-5.3,1.34-7.95A2.85,2.85,0,0,0,13.73.21C13.5.13,13.26.07,13,0h-.82a4.79,4.79,0,0,0-.75.17,3.22,3.22,0,0,0-1.37,1.24c-.62,1-1.25,2-1.88,3Q4.65,10.13,1.08,15.82A5.18,5.18,0,0,0,0,18.34v.21a1.59,1.59,0,0,1,0,.75v.2s.05.05.06.08a4.38,4.38,0,0,0,4.57,3.68c1.59,0,3.18,0,4.77,0,.23,0,.32,0,.28.28q-.62,3.62-1.2,7.22a5.14,5.14,0,0,0-.13,1.83,2.83,2.83,0,0,0,2.32,2.28,2.8,2.8,0,0,0,3-1.36L23.1,18.28A4.05,4.05,0,0,0,23.7,15.35Zm-2.92,1.48Q16.08,24.41,11.37,32c0,.09-.09.25-.23.2s-.09-.22-.08-.33l1.59-9.64a1.36,1.36,0,0,0-1.39-1.67H4.51a1.65,1.65,0,0,1-1.58-.87,1.58,1.58,0,0,1,.14-1.73Q7.75,10.48,12.41,3a.35.35,0,0,1,.05-.08c.07-.08.08-.25.24-.19s.08.18.06.29l-.45,2.75c-.39,2.36-.79,4.72-1.18,7.09a1.36,1.36,0,0,0,1.42,1.57c2.25,0,4.5,0,6.75,0a1.86,1.86,0,0,1,1.09.32A1.53,1.53,0,0,1,20.78,16.83Z"/><path d="M27.24.05A2.25,2.25,0,0,1,29.1,2.63c-.23,1.41-.45,2.83-.67,4.24,0,0,0,.08,0,.16,1.15,0,2.28,0,3.42,0A3,3,0,0,1,34.67,9a3,3,0,0,1-.4,3.06l-4.56,6.32c-.67.92-1.32,1.85-2,2.76a1.34,1.34,0,0,1-1.78.41,1.36,1.36,0,0,1-.41-2l2.67-3.7L32,10.53c.11-.16.29-.31.17-.54s-.36-.24-.59-.24H26.92A1.37,1.37,0,0,1,25.48,8c.2-1.23.39-2.46.59-3.72-.16,0-.2.16-.27.25l-3,4.18a1.37,1.37,0,0,1-2.4-.26,1.4,1.4,0,0,1,.24-1.41c1.25-1.74,2.49-3.49,3.74-5.24.06-.09.13-.18.19-.28A3.16,3.16,0,0,1,26.46,0h.41C27,.08,27.12,0,27.24.05Z"/><path d="M0,18.55a.89.89,0,0,1,0,.75Z"/><path d="M27.24.05a.38.38,0,0,1-.37,0h.34A.05.05,0,0,1,27.24.05Z"/></g></g></svg>