<svg xmlns="http://www.w3.org/2000/svg" viewBox="0 0 34.92 34.92"><g id="Layer_2" data-name="Layer 2"><g id="Layer_1-2" data-name="Layer 1"><path d="M23.7,15.32a4.3,4.3,0,0,0-4.33-3.59h-5c-.25,0-.3-.06-.26-.3.46-2.65.9-5.31,1.34-8A2.84,2.84,0,0,0,13.57.15C13.4.09,13.21.05,13,0h-.82A3.66,3.66,0,0,0,9.88,1.9C6.83,6.82,3.75,11.71.68,16.62a4.14,4.14,0,0,0-.56,3.23,4.31,4.31,0,0,0,4.22,3.4c1.7,0,3.39,0,5.08,0,.2,0,.31,0,.27.26-.41,2.4-.8,4.8-1.2,7.19a5.24,5.24,0,0,0-.13,1.89,2.87,2.87,0,0,0,5.27.93q4.74-7.62,9.47-15.23A4.11,4.11,0,0,0,23.7,15.32ZM20.75,16.9,11.48,31.8c-.09.14-.13.43-.34.35s-.06-.32,0-.48l1.56-9.54a1.35,1.35,0,0,0-1.34-1.6c-1.16,0-2.32,0-3.48,0s-2.23,0-3.34,0a1.66,1.66,0,0,1-1.58-.87,1.58,1.58,0,0,1,.15-1.73l9.3-14.85a1.62,1.62,0,0,1,.1-.18c.06-.07.09-.21.23-.16s.08.16.06.27c-.11.66-.21,1.32-.32,2q-.66,3.95-1.31,7.89a1.36,1.36,0,0,0,1.42,1.57c1.77,0,3.54,0,5.31,0,.53,0,1.05,0,1.57,0a1.56,1.56,0,0,1,1.31,2.44Z"/><path d="M34.92,10.57A6.86,6.86,0,0,1,33.56,13q-2.88,4-5.74,8a1.38,1.38,0,0,1-1.5.69,1.34,1.34,0,0,1-.82-2.13c.78-1.11,1.58-2.2,2.37-3.29L32,10.54c.12-.16.3-.31.18-.55s-.36-.24-.59-.24H26.92A1.37,1.37,0,0,1,25.48,8c.19-1.18.38-2.37.56-3.56a1,1,0,0,0,0-.17c-.14.06-.19.19-.26.28L22.84,8.71a1.36,1.36,0,1,1-2.25-1.52c.73-1.06,1.48-2.09,2.22-3.14.6-.83,1.21-1.65,1.78-2.5A3.3,3.3,0,0,1,26.46,0h.41c.12.07.25,0,.38,0a2.22,2.22,0,0,1,1.94,2.61c-.22,1.29-.41,2.58-.61,3.87-.07.4-.06.41.33.41,1,0,1.93,0,2.9,0A3.22,3.22,0,0,1,34.5,8.41a2,2,0,0,1,.38,1.25c0,.14,0,.29,0,.43Z"/><path d="M34.86,9.67s0,0,.06,0v.41A.48.48,0,0,1,34.86,9.67Z"/><path d="M27.21,0a.05.05,0,0,1,0,.05.38.38,0,0,1-.37,0Z"/></g></g></svg>