<svg xmlns="http://www.w3.org/2000/svg" viewBox="0 0 34.91 34.92"><g id="Layer_2" data-name="Layer 2"><g id="Layer_1-2" data-name="Layer 1"><path d="M18.41,0c.52.14,1.06.17,1.58.33a8.68,8.68,0,0,1,6.13,6.52c0,.17.06.29.3.32A9.61,9.61,0,0,1,28,25.94a1.37,1.37,0,1,1-.79-2.61,6.88,6.88,0,0,0-1-13.45A9,9,0,0,0,25,9.82a1.36,1.36,0,0,1-1.42-1.34,6,6,0,0,0-11.87-1c-.17.87-.53,1.28-1.22,1.38a1.53,1.53,0,0,1-.37,0A4.6,4.6,0,0,0,5.23,15a1.4,1.4,0,0,1-.72,2,3.58,3.58,0,0,0,1.71,6.67A1.38,1.38,0,0,1,7.7,24.87a1.36,1.36,0,0,1-1.38,1.45,6.34,6.34,0,0,1-6.18-5,4,4,0,0,1-.08-.5.7.7,0,0,1,0-.32c0-.13,0-.25,0-.37v-.89a5.87,5.87,0,0,1,1.28-3.17,7,7,0,0,1,.8-.83.6.6,0,0,0,.18-.58A7.18,7.18,0,0,1,3.72,8.94,7.12,7.12,0,0,1,8.58,6.13a.89.89,0,0,0,.83-.63A8.73,8.73,0,0,1,15.34.2,12.56,12.56,0,0,1,16.71,0Z"/><path d="M0,20.12c.11.1.06.23.06.35s0,0-.06,0Z"/><path d="M0,20.46H.06v.34H0Z"/><path d="M18.14,23.09c0-.79,0-.78-.78-.79a3.48,3.48,0,0,1-.91,0,1.38,1.38,0,0,1-1-1.49,1.36,1.36,0,0,1,1.32-1.19c.39,0,.77,0,1.16,0,.19,0,.25,0,.25-.24,0-.38,0-.75,0-1.13a1.37,1.37,0,0,1,2.73,0c0,.37,0,.75,0,1.12,0,.19,0,.26.23.25.38,0,.75,0,1.13,0a1.36,1.36,0,1,1,0,2.72H21.11c-.19,0-.25,0-.25.24,0,.37,0,.75,0,1.12a1.37,1.37,0,1,1-2.73,0Z"/><path d="M14.63,30.55c-.22,0-.59-.11-.73.06s-.05.51-.05.78,0,.39,0,.58a1.36,1.36,0,0,1-2.72,0c0-.38,0-.77,0-1.16,0-.22-.07-.26-.27-.25-.36,0-.72,0-1.09,0a1.36,1.36,0,1,1,0-2.72c.36,0,.72,0,1.09,0s.26-.07.25-.27c0-.37,0-.75,0-1.12a1.36,1.36,0,0,1,2.72,0c0,.38,0,.75,0,1.12s.06.27.27.26c.37,0,.75,0,1.12,0a1.36,1.36,0,0,1,0,2.72Z"/><path d="M22.08,29.48c.27,0,.63.07.78-.07s0-.51.06-.78a3.23,3.23,0,0,1,0-.88,1.36,1.36,0,0,1,2.67.3c0,.41,0,.82,0,1.22,0,.15,0,.2.19.2H27a1.37,1.37,0,1,1,0,2.73c-.39,0-.77,0-1.16,0-.15,0-.19,0-.19.19,0,.38,0,.77,0,1.16a1.36,1.36,0,1,1-2.72,0c0-.39,0-.78,0-1.16,0-.15,0-.2-.19-.19-.39,0-.77,0-1.16,0a1.37,1.37,0,1,1,0-2.73h.51Z"/></g></g></svg>