<svg xmlns="http://www.w3.org/2000/svg" viewBox="0 0 34.91 34.92"><g id="Layer_2" data-name="Layer 2"><g id="Layer_1-2" data-name="Layer 1"><path d="M34.91,17.66c-.15.41-.15.84-.26,1.25A9.54,9.54,0,0,1,27.93,26a1.35,1.35,0,0,1-1.76-.9,1.37,1.37,0,0,1,1-1.72,6.78,6.78,0,0,0,4.92-5.43A6.9,6.9,0,0,0,26.66,10,8.9,8.9,0,0,0,25,9.82a1.35,1.35,0,0,1-1.45-1.38,6,6,0,0,0-11.87-.89A1.42,1.42,0,0,1,9.94,8.88a4.6,4.6,0,0,0-4.73,6,1.42,1.42,0,0,1-.75,2,3.55,3.55,0,0,0-1.63,3.93,3.6,3.6,0,0,0,3.39,2.71,1.37,1.37,0,0,1,1.41,1.76,1.35,1.35,0,0,1-1.26,1A6.34,6.34,0,0,1,.05,20.87a6.19,6.19,0,0,1,2.18-5.66.41.41,0,0,0,.13-.45A7.33,7.33,0,0,1,9,6.16c.2,0,.26-.1.32-.26A8.61,8.61,0,0,1,16.59.06c.05,0,.09,0,.11-.06h1.7a7.18,7.18,0,0,1,2.54.58,8.69,8.69,0,0,1,5.17,5.94.71.71,0,0,0,.69.62,9.38,9.38,0,0,1,5.42,2.78,9.54,9.54,0,0,1,2.55,4.73c.08.36.07.74.14,1.1Z"/><path d="M20.86,23.12c0,.21,0,.41,0,.61A1.37,1.37,0,0,1,19.49,25a1.35,1.35,0,0,1-1.35-1.3,11.81,11.81,0,0,1,0-1.19c0-.2-.06-.25-.25-.24H16.77a1.36,1.36,0,1,1,0-2.72h1.16c.17,0,.21,0,.2-.21,0-.39,0-.78,0-1.16a1.37,1.37,0,0,1,2.73,0c0,.39,0,.77,0,1.16,0,.17,0,.21.21.21h1.15a1.36,1.36,0,1,1,0,2.72H21.1c-.2,0-.26.05-.24.24s0,.39,0,.58Z"/><path d="M13.83,31.38c0,.2,0,.41,0,.61a1.36,1.36,0,0,1-2.72,0c0-.37,0-.73,0-1.09s0-.37-.32-.34a7.53,7.53,0,0,1-.95,0,1.36,1.36,0,1,1,0-2.72c.31,0,.61,0,.92,0s.41,0,.37-.35a8.18,8.18,0,0,1,0-1,1.36,1.36,0,1,1,2.72,0,8.18,8.18,0,0,1,0,1c0,.33.1.39.39.37s.63,0,.95,0a1.36,1.36,0,1,1,0,2.72c-.34,0-.68,0-1,0s-.38,0-.34.32a4.34,4.34,0,0,1,0,.51Z"/><path d="M22.92,33c0-.27.07-.63-.07-.79s-.51,0-.78-.05a4.39,4.39,0,0,1-.81,0,1.36,1.36,0,0,1,.26-2.7c.39,0,.77,0,1.16,0,.17,0,.24,0,.23-.23,0-.37,0-.75,0-1.12a1.36,1.36,0,1,1,2.72,0c0,.38,0,.75,0,1.13,0,.17,0,.23.22.23.38,0,.75,0,1.13,0a1.37,1.37,0,1,1,0,2.73c-.37,0-.75,0-1.12,0-.18,0-.24,0-.23.22,0,.37,0,.75,0,1.12a1.36,1.36,0,1,1-2.72,0c0-.17,0-.34,0-.51Z"/></g></g></svg>