<svg xmlns="http://www.w3.org/2000/svg" viewBox="0 0 34.92 34.93"><g id="Layer_2" data-name="Layer 2"><g id="Layer_1-2" data-name="Layer 1"><path d="M0,26.39a1.67,1.67,0,0,1,1.31-1.13,30.88,30.88,0,0,1,8.33-1.19,34.15,34.15,0,0,1,6.44.86c1.82.38,3.64.77,5.49,1a1.37,1.37,0,0,1-.21,2.72,20.15,20.15,0,0,1-2.89-.43c-2.13-.4-4.23-.93-6.38-1.22a22.51,22.51,0,0,0-7.59.32c-.83.17-1.66.38-2.48.59a1.43,1.43,0,0,1-2-1Z"/><path d="M0,8.18A1.9,1.9,0,0,1,1.49,7.06,30.21,30.21,0,0,1,9.73,5.94a34.13,34.13,0,0,1,6.21.77c1.87.38,3.73.77,5.63,1a1.36,1.36,0,0,1-.25,2.71,28.59,28.59,0,0,1-3.19-.5c-2-.36-4-.83-6-1.08a23.47,23.47,0,0,0-7.29.26A22.48,22.48,0,0,0,2,9.76a1.47,1.47,0,0,1-2-1Z"/><path d="M0,20.39a1.84,1.84,0,0,1,1.47-1.13A29.62,29.62,0,0,1,10,18.15c.43,0,.86,0,1.29.07a1.37,1.37,0,0,1,1.37,1.46,1.33,1.33,0,0,1-1.52,1.26A26,26,0,0,0,2,22C1,22.23.48,22,0,21Z"/><path d="M10.84,0c.21.14.45.06.68.11a1.37,1.37,0,0,1,.11,2.65,1.59,1.59,0,0,1-.61,0,25.19,25.19,0,0,0-9,1,1.45,1.45,0,0,1-2-1V2.25A1.34,1.34,0,0,1,1.09,1.13a31.32,31.32,0,0,1,5.27-1c.4,0,.81,0,1.21-.08h.27C7.89.05,8,0,8,0h.25c.07,0,.15,0,.21,0h.27a2.91,2.91,0,0,0,1,0h.34c.06.06.13,0,.2,0h.13c.05,0,.11,0,.15,0Z"/><path d="M0,14.19a1.67,1.67,0,0,1,1.31-1.14,39.3,39.3,0,0,1,4.3-.83A1.36,1.36,0,0,1,6,14.91a43.9,43.9,0,0,0-4.4.88A1.32,1.32,0,0,1,.12,15L0,14.73Z"/><path d="M0,32.4a1.76,1.76,0,0,1,1.41-1.12c1.3-.33,2.62-.63,4-.84a1.4,1.4,0,0,1,1.8,1.32,1.32,1.32,0,0,1-1,1.31c-1.5.25-3,.58-4.45,1a1.31,1.31,0,0,1-1.6-.88S.06,33,0,33Z"/><path d="M9.75,0a1.62,1.62,0,0,1-1,0Z"/><path d="M8.46,0c-.05.09-.13.06-.21.06s0,0,0,0l0,0Z"/><path d="M10.3.06c-.08,0-.16,0-.21-.06h.21s0,0,0,0Z"/><path d="M8,.06c-.06,0-.12,0-.14-.06H8S8,0,8,0Z"/><path d="M8,.06V0h.14s0,0,0,0l0,0Z"/><path d="M8.11.06s0,0,0-.06h.13V.06Z"/><path d="M10.3.06V0h.13s0,0,0,0l0,0Z"/><path d="M10.44.06s0,0,0-.06h.14C10.55.08,10.49.07,10.44.06Z"/><path d="M24.18,34.93a42.26,42.26,0,0,1-7.66-1.07c-1.37-.29-2.75-.56-4.14-.77a1.36,1.36,0,1,1,.41-2.69c1.91.25,3.79.7,5.68,1.07A34.14,34.14,0,0,0,28.9,32c1.44-.15,2.86-.36,4.28-.62a1.38,1.38,0,0,1,1.63.79,1.35,1.35,0,0,1-.47,1.64,2.13,2.13,0,0,1-1,.31A49.72,49.72,0,0,1,24.18,34.93Z"/><path d="M25.18,16.71a39.53,39.53,0,0,1-7.56-.85c-1.74-.35-3.48-.76-5.24-1A1.37,1.37,0,0,1,11.2,13.3a1.39,1.39,0,0,1,1.63-1.14c2.28.33,4.51.9,6.78,1.3a32,32,0,0,0,9.06.34c1.52-.16,3-.39,4.54-.66a1.36,1.36,0,1,1,.51,2.67c-1.12.2-2.24.39-3.36.54A41.16,41.16,0,0,1,25.18,16.71Z"/><path d="M25.25,4.77a38.14,38.14,0,0,1-8-.9,1.36,1.36,0,1,1,.55-2.66A37.75,37.75,0,0,0,26,2a44.21,44.21,0,0,0,7.07-.78,1.83,1.83,0,0,1,.87,0,1.37,1.37,0,0,1,1,1.35,1.34,1.34,0,0,1-1.09,1.27,44.21,44.21,0,0,1-5.25.74C27.52,4.72,26.47,4.78,25.25,4.77Z"/><path d="M25.22,22.91A39.44,39.44,0,0,1,17.27,22a1.37,1.37,0,0,1-1.08-1.6,1.35,1.35,0,0,1,1.63-1.07,37.48,37.48,0,0,0,8.18.83,44.58,44.58,0,0,0,7.1-.78,1.83,1.83,0,0,1,.87,0,1.37,1.37,0,0,1,1,1.35A1.34,1.34,0,0,1,33.83,22a47.09,47.09,0,0,1-5.29.75C27.5,22.86,26.46,22.92,25.22,22.91Z"/><path d="M27.3,10.7A1.37,1.37,0,1,1,27.15,8a47.25,47.25,0,0,0,6.06-.85,1.38,1.38,0,0,1,1.68,1.06,1.35,1.35,0,0,1-1.1,1.61A50.67,50.67,0,0,1,27.3,10.7Z"/><path d="M27.36,28.84a1.39,1.39,0,0,1-1.58-1.3,1.37,1.37,0,0,1,1.41-1.42,47.18,47.18,0,0,0,5.93-.79,1.61,1.61,0,0,1,1,.06,1.37,1.37,0,0,1,.82,1.36A1.35,1.35,0,0,1,33.84,28a50.7,50.7,0,0,1-5.62.81Z"/></g></g></svg>