<svg xmlns="http://www.w3.org/2000/svg" viewBox="0 0 34.92 34.91"><g id="Layer_2" data-name="Layer 2"><g id="Layer_1-2" data-name="Layer 1"><path d="M34.92,33a1.71,1.71,0,0,1-1.5,1.12,46,46,0,0,1-8.61.78,41.06,41.06,0,0,1-8-1c-1.49-.31-3-.62-4.48-.85a1.33,1.33,0,0,1-1.17-1.52,1.36,1.36,0,0,1,1.57-1.16c1.92.25,3.81.69,5.71,1.07A33.89,33.89,0,0,0,28.92,32c1.35-.14,2.7-.34,4-.57,1.11-.19,1.46,0,2,1Z"/><path d="M34.92,14.73a1.61,1.61,0,0,1-1.42,1.13,42.42,42.42,0,0,1-10.37.77,48,48,0,0,1-6.85-1C15,15.31,13.7,15,12.4,14.86a1.37,1.37,0,0,1-1.2-1.58,1.39,1.39,0,0,1,1.64-1.12c2.28.34,4.52.9,6.78,1.31a32.16,32.16,0,0,0,9,.33c1.56-.16,3.1-.4,4.64-.68.73-.14,1.27.22,1.63,1.06Z"/><path d="M34.92,2.86A1.69,1.69,0,0,1,33.45,4a45.1,45.1,0,0,1-9,.78,39.92,39.92,0,0,1-7.22-.89,1.36,1.36,0,0,1,.56-2.67A37.18,37.18,0,0,0,26,2a45.83,45.83,0,0,0,7-.76c1-.18,1.4,0,1.89,1Z"/><path d="M34.92,21a1.69,1.69,0,0,1-1.47,1.12,45.1,45.1,0,0,1-9,.78A39.92,39.92,0,0,1,17.25,22a1.36,1.36,0,0,1,.56-2.67,37.18,37.18,0,0,0,8.22.84,45.83,45.83,0,0,0,7-.76c1-.18,1.4,0,1.89,1Z"/><path d="M10.85,0c.15.14.33.06.5.08a1.42,1.42,0,0,1,1.27,1.27,1.37,1.37,0,0,1-1,1.41,1.12,1.12,0,0,1-.48,0A25.91,25.91,0,0,0,1.81,3.86,1.38,1.38,0,0,1,.17,3.22,1.36,1.36,0,0,1,.46,1.54a1.55,1.55,0,0,1,.63-.31A31.84,31.84,0,0,1,7.44.07s.12,0,.13-.07h.21c0,.05.1,0,.16,0H8.2c.09,0,.18,0,.26,0h.27a2.91,2.91,0,0,0,1,0h.35c0,.05.1,0,.15,0h.12c.07,0,.14,0,.2,0Z"/><path d="M34.92,8.73A1.63,1.63,0,0,1,33.5,9.85a54.19,54.19,0,0,1-6.21.85A1.36,1.36,0,0,1,27,8a51.12,51.12,0,0,0,6.27-.88c.76-.14,1.29.21,1.65,1.07Z"/><path d="M34.92,26.94a1.68,1.68,0,0,1-1.47,1.11,54.9,54.9,0,0,1-5.84.77,2.16,2.16,0,0,1-.84,0,1.36,1.36,0,0,1-1-1.45A1.33,1.33,0,0,1,27,26.13a50,50,0,0,0,6.21-.82c.79-.14,1.24.14,1.69,1Z"/><path d="M9.75,0a1.62,1.62,0,0,1-1,0Z"/><path d="M8.46,0c-.08.1-.18.06-.28.06a0,0,0,0,1,0,0l0,0Z"/><path d="M10.57,0c0,.11-.13.05-.2.06s0,0,0,0l0,0Z"/><path d="M7.91.06c-.06,0-.12,0-.13-.06h.13s0,0,0,0A0,0,0,0,1,7.91.06Z"/><path d="M7.91.06V0h.14s0,0,0,0l0,0Z"/><path d="M8.05.06V0h.14a.13.13,0,0,1,0,.06Z"/><path d="M10.23.06A.1.1,0,0,1,10.1,0h.13s0,0,0,0A0,0,0,0,1,10.23.06Z"/><path d="M10.23.06V0h.14V.06Z"/><path d="M21.22,28.64a31.09,31.09,0,0,1-3.1-.5c-2-.39-4-.89-6.05-1.16a23,23,0,0,0-7.59.33c-.92.18-1.83.43-2.74.66A1.34,1.34,0,0,1,.05,27a1.33,1.33,0,0,1,1-1.65,28.49,28.49,0,0,1,10.22-1.2,45.88,45.88,0,0,1,5.47.91c1.6.34,3.2.67,4.83.86a1.37,1.37,0,0,1,1.23,1.46A1.41,1.41,0,0,1,21.22,28.64Z"/><path d="M9.35,5.93a33.23,33.23,0,0,1,6.59.78c1.87.38,3.73.77,5.63,1a1.36,1.36,0,0,1-.24,2.71,26.61,26.61,0,0,1-3.2-.5c-2-.36-4-.83-6-1.08a23.34,23.34,0,0,0-7.32.26c-1,.19-2,.44-3,.7a1.35,1.35,0,0,1-1.79-1A1.37,1.37,0,0,1,1.13,7.17,30.53,30.53,0,0,1,9.35,5.93Z"/><path d="M9.46,20.87A27.38,27.38,0,0,0,1.83,22,1.36,1.36,0,1,1,1,19.39a34,34,0,0,1,4.48-1,26.22,26.22,0,0,1,5.67-.21,1.42,1.42,0,0,1,1.46,1.32A1.36,1.36,0,0,1,11.24,21C10.61,20.94,10,20.85,9.46,20.87Z"/><path d="M5.71,12.21a1.4,1.4,0,0,1,1.45,1.22A1.36,1.36,0,0,1,6,14.92a37.67,37.67,0,0,0-4.33.86A1.36,1.36,0,0,1,1,13.16a27.63,27.63,0,0,1,3.82-.82Z"/><path d="M5.76,30.4a1.35,1.35,0,0,1,1.39,1.18,1.32,1.32,0,0,1-1.08,1.5c-1.47.25-2.91.56-4.35.94A1.34,1.34,0,0,1,0,33,1.33,1.33,0,0,1,1,31.42a31.32,31.32,0,0,1,4.57-1A1,1,0,0,1,5.76,30.4Z"/></g></g></svg>