<svg xmlns="http://www.w3.org/2000/svg" viewBox="0 0 99.76 93.54"><g id="Layer_2" data-name="Layer 2"><g id="Layer_1-2" data-name="Layer 1"><path d="M0,77.16c.78-1.81,2.17-2.38,4.1-2.37,10.87.06,21.75,0,32.63,0a4.4,4.4,0,0,1,3.37,1.39c3,3.06,6.06,6.06,9.07,9.12.54.56.82.64,1.41,0,3-3.07,6.06-6.06,9.06-9.12A4.39,4.39,0,0,1,63,74.8q16.6,0,33.22,0a3.23,3.23,0,0,1,3.21,1.76A3.09,3.09,0,0,1,96.93,81a9.51,9.51,0,0,1-1.07,0q-15.69,0-31.37,0a1.81,1.81,0,0,0-1.44.59c-3.49,3.53-7,7-10.53,10.54-1.83,1.83-3.44,1.83-5.28,0-3.47-3.46-7-6.92-10.39-10.41A2.25,2.25,0,0,0,35.07,81c-10.32,0-20.65,0-31,0-1.93,0-3.32-.56-4.1-2.37Z"/><path d="M73.46,68.58c-3.51,0-7,0-10.52,0a10.06,10.06,0,0,0-7.59,3.14c-1.63,1.67-3.32,3.29-4.94,5-.43.44-.64.42-1.06,0-1.58-1.63-3.22-3.2-4.8-4.84a10.28,10.28,0,0,0-7.83-3.26c-7.21,0-14.42,0-21.63,0a1.54,1.54,0,0,1-1.46-.81,43.06,43.06,0,0,1-6.85-17.5A43.57,43.57,0,0,1,36.35,2.15a42.55,42.55,0,0,1,17.47-2,3.11,3.11,0,0,1,2.79,3.73,29.16,29.16,0,0,0,.64,13.2A27.54,27.54,0,0,0,68.94,32.85a28,28,0,0,0,20.58,4.08,3.15,3.15,0,0,1,3.83,3,43.21,43.21,0,0,1-2.92,19.74,47.22,47.22,0,0,1-4.51,8.48,1.05,1.05,0,0,1-1.06.46Z"/></g></g></svg>