<svg xmlns="http://www.w3.org/2000/svg" viewBox="0 0 99.76 81.08"><g id="Layer_2" data-name="Layer 2"><g id="Layer_1-2" data-name="Layer 1"><path d="M0,77.15c.78-1.81,2.17-2.37,4.1-2.36,10.32.06,20.65,0,31,0a2.27,2.27,0,0,0,1.78-.71c3.46-3.52,7-7,10.46-10.49,1.74-1.74,3.4-1.74,5.14,0q5.31,5.29,10.6,10.61a1.81,1.81,0,0,0,1.44.59q15.74,0,31.46,0a4.8,4.8,0,0,1,1.64.16,3.1,3.1,0,0,1,2.16,3.21A3.14,3.14,0,0,1,97,81c-.32,0-.65,0-1,0q-16.52,0-33,0a4.33,4.33,0,0,1-3.29-1.35c-3-3.09-6.11-6.1-9.13-9.19-.59-.61-.87-.53-1.41,0-3,3.08-6.11,6.1-9.14,9.18a4.19,4.19,0,0,1-3.2,1.33C25.92,81,15,81,4.1,81.08c-1.93,0-3.32-.56-4.1-2.37Z"/><path d="M75.89,68.58c-2.93,0-5.85,0-8.77,0A1.9,1.9,0,0,1,65.59,68q-4.37-4.44-8.8-8.82A9.27,9.27,0,0,0,46.71,56.7a9.87,9.87,0,0,0-3.84,2.56C40,62.18,37,65.09,34.13,68a1.74,1.74,0,0,1-1.35.57c-5.94,0-11.89,0-17.83,0A1.22,1.22,0,0,1,13.77,68,42.45,42.45,0,0,1,6.29,42.2,42.62,42.62,0,0,1,21,11,43.08,43.08,0,0,1,53.84.2,3.09,3.09,0,0,1,56.6,3.94a29.16,29.16,0,0,0,.66,13.2A27.6,27.6,0,0,0,69,32.87,28.12,28.12,0,0,0,89.44,37a3.17,3.17,0,0,1,3.93,3.17,43.21,43.21,0,0,1-2.92,19.45,47.08,47.08,0,0,1-4.54,8.56c-.29.46-.64.45-1.06.45Z"/></g></g></svg>