<svg xmlns="http://www.w3.org/2000/svg" viewBox="0 0 99.77 87.31"><g id="Layer_2" data-name="Layer 2"><g id="Layer_1-2" data-name="Layer 1"><path d="M0,70.92c.78-1.81,2.17-2.37,4.1-2.36,10.87.06,21.75,0,32.63,0A4.38,4.38,0,0,1,40.1,70c3,3.07,6.06,6.06,9.07,9.12.54.56.82.63,1.41,0,3-3.09,6.11-6.11,9.13-9.19A4.3,4.3,0,0,1,63,68.57c11,0,22,0,33,0a4.75,4.75,0,0,1,1.54.15,3.1,3.1,0,0,1-.64,6.06c-.36,0-.71,0-1.07,0q-15.69,0-31.37,0a1.84,1.84,0,0,0-1.44.58q-5.23,5.3-10.53,10.55c-1.83,1.83-3.44,1.83-5.28,0-3.45-3.44-6.91-6.87-10.32-10.34A2.38,2.38,0,0,0,35,74.81c-10.3,0-20.59,0-30.88,0-1.93,0-3.32-.56-4.1-2.37Z"/><path d="M0,49.1a3.74,3.74,0,0,1,4.09-2.36c1.68.1,3.37,0,5.05,0a3.12,3.12,0,1,1,0,6.23c-1.68,0-3.37-.07-5.05,0A3.75,3.75,0,0,1,0,50.66Z"/><path d="M29.81,62.35c-2.56,0-5.13,0-7.69,0a.93.93,0,0,1-1.07-.67c-3.49-9-3.16-17.85,1.33-26.41A30.09,30.09,0,0,1,38.59,20.86a30.29,30.29,0,0,1,23.13.21A30.38,30.38,0,0,1,77.61,35.71a30.57,30.57,0,0,1,3.25,17.52,32,32,0,0,1-2.22,8.64c-.22.57-.59.48-1,.48-4.87,0-9.74,0-14.61,0a10.19,10.19,0,0,0-7.75,3.2c-1.6,1.66-3.27,3.25-4.88,4.91-.42.43-.64.43-1.06,0-1.64-1.71-3.35-3.36-5-5a9.86,9.86,0,0,0-7.42-3.05C34.55,62.37,32.18,62.35,29.81,62.35Z"/><path d="M53,6.24c0,1,0,2.08,0,3.12a3.11,3.11,0,0,1-6.21,0c0-2.11,0-4.23,0-6.34A3.11,3.11,0,0,1,53,3c0,1.07,0,2.14,0,3.21Z"/><path d="M93.52,46.76c1,0,2.08,0,3.12,0a3.11,3.11,0,1,1,0,6.22q-3.06,0-6.14,0a3.11,3.11,0,1,1,0-6.22C91.51,46.74,92.51,46.76,93.52,46.76Z"/><path d="M78.54,24.35a3.11,3.11,0,0,1-2.77-1.77,2.76,2.76,0,0,1,.35-3.27c1.56-1.69,3.2-3.32,4.89-4.88a3.07,3.07,0,0,1,4.33,4.33c-1.54,1.67-3.18,3.24-4.81,4.83A3,3,0,0,1,78.54,24.35Z"/><path d="M24.35,21.23A3.1,3.1,0,0,1,22.6,24a2.76,2.76,0,0,1-3.27-.35c-1.72-1.58-3.38-3.23-5-4.95a3.07,3.07,0,0,1,4.31-4.32c1.75,1.59,3.38,3.31,5,5A2.8,2.8,0,0,1,24.35,21.23Z"/></g></g></svg>